<mxfile host="app.diagrams.net" agent="Mozilla/5.0 (Macintosh; Intel Mac OS X 10_15_7) AppleWebKit/537.36 (KHTML, like Gecko) Chrome/136.0.0.0 Safari/537.36" version="27.0.6">
  <diagram name="Page-1" id="42HKUrtjAewqSxrtqkIi">
    <mxGraphModel dx="631" dy="344" grid="0" gridSize="10" guides="1" tooltips="1" connect="1" arrows="1" fold="1" page="0" pageScale="1" pageWidth="850" pageHeight="1100" math="0" shadow="0">
      <root>
        <mxCell id="0" />
        <mxCell id="1" parent="0" />
        <mxCell id="Yjfb3iPJIWbuipCXhJsc-10" style="edgeStyle=orthogonalEdgeStyle;rounded=0;orthogonalLoop=1;jettySize=auto;html=1;entryX=0.5;entryY=0;entryDx=0;entryDy=0;" edge="1" parent="1" source="Yjfb3iPJIWbuipCXhJsc-1" target="Yjfb3iPJIWbuipCXhJsc-7">
          <mxGeometry relative="1" as="geometry" />
        </mxCell>
        <mxCell id="Yjfb3iPJIWbuipCXhJsc-1" value="Document Image" style="rounded=1;whiteSpace=wrap;html=1;fillColor=#dae8fc;strokeColor=#6c8ebf;" vertex="1" parent="1">
          <mxGeometry x="114" y="40" width="120" height="60" as="geometry" />
        </mxCell>
        <mxCell id="Yjfb3iPJIWbuipCXhJsc-12" style="edgeStyle=orthogonalEdgeStyle;rounded=0;orthogonalLoop=1;jettySize=auto;html=1;entryX=0;entryY=0.5;entryDx=0;entryDy=0;" edge="1" parent="1" source="Yjfb3iPJIWbuipCXhJsc-3" target="Yjfb3iPJIWbuipCXhJsc-4">
          <mxGeometry relative="1" as="geometry" />
        </mxCell>
        <mxCell id="Yjfb3iPJIWbuipCXhJsc-3" value="Feature Extraction" style="rounded=1;whiteSpace=wrap;html=1;" vertex="1" parent="1">
          <mxGeometry x="114" y="285" width="120" height="60" as="geometry" />
        </mxCell>
        <mxCell id="Yjfb3iPJIWbuipCXhJsc-13" style="edgeStyle=orthogonalEdgeStyle;rounded=0;orthogonalLoop=1;jettySize=auto;html=1;" edge="1" parent="1" source="Yjfb3iPJIWbuipCXhJsc-4" target="Yjfb3iPJIWbuipCXhJsc-9">
          <mxGeometry relative="1" as="geometry" />
        </mxCell>
        <mxCell id="Yjfb3iPJIWbuipCXhJsc-4" value="Model Training / Inference such as SVMs, CRF-based approaches" style="rounded=1;whiteSpace=wrap;html=1;" vertex="1" parent="1">
          <mxGeometry x="307" y="285" width="120" height="60" as="geometry" />
        </mxCell>
        <mxCell id="Yjfb3iPJIWbuipCXhJsc-6" value="Optional Post-processing &amp;amp; Algiment Correction" style="rounded=1;whiteSpace=wrap;html=1;fillColor=#dae8fc;strokeColor=#6c8ebf;" vertex="1" parent="1">
          <mxGeometry x="307" y="37" width="120" height="60" as="geometry" />
        </mxCell>
        <mxCell id="Yjfb3iPJIWbuipCXhJsc-11" style="edgeStyle=orthogonalEdgeStyle;rounded=0;orthogonalLoop=1;jettySize=auto;html=1;" edge="1" parent="1" source="Yjfb3iPJIWbuipCXhJsc-7" target="Yjfb3iPJIWbuipCXhJsc-3">
          <mxGeometry relative="1" as="geometry" />
        </mxCell>
        <mxCell id="Yjfb3iPJIWbuipCXhJsc-7" value="Preprocessing such as Binarixation, skew correction" style="rounded=1;whiteSpace=wrap;html=1;" vertex="1" parent="1">
          <mxGeometry x="114" y="157" width="120" height="60" as="geometry" />
        </mxCell>
        <mxCell id="Yjfb3iPJIWbuipCXhJsc-14" style="edgeStyle=orthogonalEdgeStyle;rounded=0;orthogonalLoop=1;jettySize=auto;html=1;" edge="1" parent="1" source="Yjfb3iPJIWbuipCXhJsc-9" target="Yjfb3iPJIWbuipCXhJsc-6">
          <mxGeometry relative="1" as="geometry" />
        </mxCell>
        <mxCell id="Yjfb3iPJIWbuipCXhJsc-9" value="Structure Prediction" style="rounded=1;whiteSpace=wrap;html=1;" vertex="1" parent="1">
          <mxGeometry x="307" y="161" width="120" height="60" as="geometry" />
        </mxCell>
      </root>
    </mxGraphModel>
  </diagram>
</mxfile>
